<mxfile host="app.diagrams.net" modified="2021-05-28T01:08:28.225Z" agent="5.0 (Macintosh; Intel Mac OS X 10_15_7) AppleWebKit/537.36 (KHTML, like Gecko) Chrome/91.0.4472.77 Safari/537.36" etag="tNv45VCytpIUuQNjFxtv" version="14.7.2" type="github">
  <diagram id="7YJA_Nkg8UE8ZIRbe-5K" name="第 1 页">
    <mxGraphModel dx="1126" dy="771" grid="1" gridSize="10" guides="1" tooltips="1" connect="1" arrows="1" fold="1" page="1" pageScale="1" pageWidth="827" pageHeight="1169" math="0" shadow="0">
      <root>
        <mxCell id="0" />
        <mxCell id="1" parent="0" />
        <mxCell id="BhfL6dKQULjLhX4lQ2sC-1" value="认证服务" style="rounded=0;whiteSpace=wrap;html=1;" vertex="1" parent="1">
          <mxGeometry x="370" y="110" width="120" height="60" as="geometry" />
        </mxCell>
        <mxCell id="BhfL6dKQULjLhX4lQ2sC-6" style="edgeStyle=orthogonalEdgeStyle;rounded=0;orthogonalLoop=1;jettySize=auto;html=1;entryX=0;entryY=0.5;entryDx=0;entryDy=0;dashed=1;" edge="1" parent="1" source="BhfL6dKQULjLhX4lQ2sC-2" target="BhfL6dKQULjLhX4lQ2sC-1">
          <mxGeometry relative="1" as="geometry" />
        </mxCell>
        <mxCell id="BhfL6dKQULjLhX4lQ2sC-2" value="网关" style="rounded=0;whiteSpace=wrap;html=1;" vertex="1" parent="1">
          <mxGeometry x="170" y="240" width="120" height="60" as="geometry" />
        </mxCell>
        <mxCell id="BhfL6dKQULjLhX4lQ2sC-5" style="edgeStyle=orthogonalEdgeStyle;rounded=0;orthogonalLoop=1;jettySize=auto;html=1;" edge="1" parent="1" source="BhfL6dKQULjLhX4lQ2sC-3" target="BhfL6dKQULjLhX4lQ2sC-2">
          <mxGeometry relative="1" as="geometry" />
        </mxCell>
        <mxCell id="BhfL6dKQULjLhX4lQ2sC-3" value="Actor" style="shape=umlActor;verticalLabelPosition=bottom;verticalAlign=top;html=1;outlineConnect=0;" vertex="1" parent="1">
          <mxGeometry x="40" y="240" width="30" height="60" as="geometry" />
        </mxCell>
        <mxCell id="BhfL6dKQULjLhX4lQ2sC-4" value="认证服务" style="rounded=0;whiteSpace=wrap;html=1;" vertex="1" parent="1">
          <mxGeometry x="490" y="250" width="120" height="60" as="geometry" />
        </mxCell>
      </root>
    </mxGraphModel>
  </diagram>
</mxfile>
